<svg width="511.978" height="511.978" xmlns="http://www.w3.org/2000/svg">

 <g>
  <title>background</title>
  <rect fill="none" id="canvas_background" height="402" width="582" y="-1" x="-1"/>
 </g>
 <g>
  <title>Layer 1</title>
  <g id="svg_1">
   <g id="svg_2">
    <path fill="#fddcdc" id="svg_3" d="m255.989,511.978c-68.357,0 -132.623,-26.628 -180.958,-74.979c-48.334,-48.35 -74.953,-112.633 -74.953,-181.01c0,-68.376 26.619,-132.66 74.953,-181.01c48.335,-48.351 112.601,-74.979 180.958,-74.979s132.623,26.628 180.958,74.979c48.334,48.35 74.953,112.634 74.953,181.01s-26.619,132.66 -74.953,181.01c-48.335,48.351 -112.601,74.979 -180.958,74.979zm0,-481.978c-60.342,0 -117.073,23.506 -159.742,66.189c-42.67,42.684 -66.169,99.435 -66.169,159.8s23.5,117.116 66.169,159.8c42.669,42.683 99.399,66.189 159.742,66.189s117.073,-23.506 159.742,-66.189c42.67,-42.684 66.169,-99.435 66.169,-159.8s-23.499,-117.116 -66.169,-159.8c-42.669,-42.683 -99.4,-66.189 -159.742,-66.189z"/>
   </g>
   <g id="svg_4">
    <path fill="#fddcdc" id="svg_5" d="m301.418,376.858c-4.171,0 -8.296,-1.391 -11.736,-4.104l-126.932,-100.068c-5.895,-4.648 -9.249,-11.618 -9.203,-19.124c0.045,-7.505 3.484,-14.434 9.435,-19.009l125.22,-95.51c5.989,-4.605 13.981,-5.397 20.809,-2.035c6.83,3.364 11.072,10.183 11.072,17.795l0,55.334l0.371,94.544l0,53.148c0,7.344 -4.104,13.896 -10.712,17.1c-2.665,1.294 -5.505,1.929 -8.324,1.929zm-114.185,-123.072l103.22,81.375l0,-30.419l-0.371,-94.517c0,-0.02 0,-0.04 0,-0.059l0,-34.826l-102.849,78.446z"/>
   </g>
  </g>
 </g>
</svg>